<svg width="32" height="32" viewBox="0 0 32 32" fill="none" xmlns="http://www.w3.org/2000/svg">
<path d="M6.66675 10.6667C4.45341 10.6667 2.66675 12.4534 2.66675 14.6667V25.3334C2.66675 27.5467 4.45341 29.3334 6.66675 29.3334H8.66675C10.1334 29.3334 11.3334 28.1334 11.3334 26.6667V13.3334C11.3334 11.8667 10.1334 10.6667 8.66675 10.6667H6.66675ZM8.00008 22.6667C8.00008 23.2134 7.54675 23.6667 7.00008 23.6667C6.45341 23.6667 6.00008 23.2134 6.00008 22.6667V17.3334C6.00008 16.7867 6.45341 16.3334 7.00008 16.3334C7.54675 16.3334 8.00008 16.7867 8.00008 17.3334V22.6667Z" fill="white"/>
<path d="M25.3333 2.66675H17.3333C15.1199 2.66675 13.3333 4.45341 13.3333 6.66675V25.3334C13.3333 27.5467 15.1199 29.3334 17.3333 29.3334H17.9999C18.3733 29.3334 18.6666 29.0401 18.6666 28.6667V24.0001C18.6666 23.2667 19.2666 22.6667 19.9999 22.6667H22.6666C23.3999 22.6667 23.9999 23.2667 23.9999 24.0001V28.6667C23.9999 29.0401 24.2933 29.3334 24.6666 29.3334H25.3333C27.5466 29.3334 29.3333 27.5467 29.3333 25.3334V6.66675C29.3333 4.45341 27.5466 2.66675 25.3333 2.66675ZM19.6666 17.3334C19.6666 17.8801 19.2133 18.3334 18.6666 18.3334C18.1199 18.3334 17.6666 17.8801 17.6666 17.3334V10.6667C17.6666 10.1201 18.1199 9.66675 18.6666 9.66675C19.2133 9.66675 19.6666 10.1201 19.6666 10.6667V17.3334ZM24.9999 17.3334C24.9999 17.8801 24.5466 18.3334 23.9999 18.3334C23.4533 18.3334 22.9999 17.8801 22.9999 17.3334V10.6667C22.9999 10.1201 23.4533 9.66675 23.9999 9.66675C24.5466 9.66675 24.9999 10.1201 24.9999 10.6667V17.3334Z" fill="white"/>
</svg>
