<svg width="21" height="21" viewBox="0 0 21 21" fill="none" xmlns="http://www.w3.org/2000/svg">
<path d="M0 9.875C0 8.61597 0.592777 7.43042 1.6 6.675L8.1 1.8C9.52222 0.733333 11.4778 0.733333 12.9 1.8L19.4 6.675C20.4072 7.43042 21 8.61597 21 9.875V21H0V9.875Z" fill="#7065F0"/>
<path d="M9.33325 13.4167C9.09409 13.4167 8.89575 13.6151 8.89575 13.8542V14.7292C8.89575 14.9684 9.09409 15.1667 9.33325 15.1667C9.57242 15.1667 9.77075 14.9684 9.77075 14.7292V13.8542C9.77075 13.6151 9.57242 13.4167 9.33325 13.4167Z" fill="white"/>
<path d="M16.3334 16.7708H15.7501V10.1967C15.7501 9.835 15.5867 9.49667 15.3009 9.275L11.2176 6.10167C10.7976 5.76917 10.2026 5.76917 9.78258 6.10167L5.69925 9.275C5.41341 9.49667 5.25008 9.835 5.25008 10.1908L5.22091 16.7708H4.66675C4.42758 16.7708 4.22925 16.9633 4.22925 17.2083C4.22925 17.4475 4.42758 17.6458 4.66675 17.6458H16.3334C16.5726 17.6458 16.7709 17.4475 16.7709 17.2083C16.7709 16.9633 16.5726 16.7708 16.3334 16.7708ZM9.62508 8.3125H11.3751C11.6142 8.3125 11.8126 8.51084 11.8126 8.75C11.8126 8.98917 11.6142 9.1875 11.3751 9.1875H9.62508C9.38591 9.1875 9.18758 8.98917 9.18758 8.75C9.18758 8.51084 9.38591 8.3125 9.62508 8.3125ZM13.4167 16.7708H7.58341V11.6667C7.58341 11.1825 7.97425 10.7917 8.45841 10.7917H12.5417C13.0259 10.7917 13.4167 11.1825 13.4167 11.6667V16.7708Z" fill="white"/>
</svg>
