<svg width="21" height="21" viewBox="0 0 21 21" fill="none" xmlns="http://www.w3.org/2000/svg">
<rect width="21" height="21" rx="10.5" fill="#7065F0"/>
<path d="M10.5001 4.66675C7.28008 4.66675 4.66675 7.28008 4.66675 10.5001C4.66675 13.7201 7.28008 16.3334 10.5001 16.3334C13.7201 16.3334 16.3334 13.7201 16.3334 10.5001C16.3334 7.28008 13.7201 4.66675 10.5001 4.66675ZM8.59258 7.96841C9.06508 7.96841 9.45591 8.35342 9.45591 8.83175C9.45591 9.30425 9.07091 9.69508 8.59258 9.69508C8.12008 9.69508 7.72925 9.31008 7.72925 8.83175C7.72925 8.35342 8.11425 7.96841 8.59258 7.96841ZM8.66258 12.7167C8.57508 12.8042 8.46425 12.8451 8.35341 12.8451C8.24258 12.8451 8.13175 12.8042 8.04425 12.7167C7.87508 12.5476 7.87508 12.2676 8.04425 12.0984L11.8651 8.27758C12.0342 8.10841 12.3142 8.10841 12.4834 8.27758C12.6526 8.44675 12.6526 8.72675 12.4834 8.89592L8.66258 12.7167ZM12.4076 13.0317C11.9351 13.0317 11.5442 12.6467 11.5442 12.1684C11.5442 11.6959 11.9292 11.3051 12.4076 11.3051C12.8801 11.3051 13.2709 11.6901 13.2709 12.1684C13.2709 12.6467 12.8859 13.0317 12.4076 13.0317Z" fill="white"/>
</svg>
