<svg width="21" height="21" viewBox="0 0 21 21" fill="none" xmlns="http://www.w3.org/2000/svg">
<path d="M0 0H21V10.5C21 16.299 16.299 21 10.5 21C4.70101 21 0 16.299 0 10.5V0Z" fill="#7065F0"/>
<path d="M14.315 5.93246L11.1066 4.73079C10.7741 4.60829 10.2316 4.60829 9.89913 4.73079L6.6908 5.93246C6.07247 6.16579 5.5708 6.88912 5.5708 7.54829V12.2733C5.5708 12.7458 5.87997 13.37 6.25913 13.65L9.46747 16.0475C10.0333 16.4733 10.9608 16.4733 11.5266 16.0475L14.735 13.65C15.1141 13.3641 15.4233 12.7458 15.4233 12.2733V7.54829C15.4291 6.88912 14.9275 6.16579 14.315 5.93246ZM10.9375 11.0075V12.5416C10.9375 12.7808 10.7391 12.9791 10.5 12.9791C10.2608 12.9791 10.0625 12.7808 10.0625 12.5416V11.0075C9.4733 10.8208 9.04163 10.2725 9.04163 9.62496C9.04163 8.81996 9.69497 8.16662 10.5 8.16662C11.305 8.16662 11.9583 8.81996 11.9583 9.62496C11.9583 10.2783 11.5266 10.8208 10.9375 11.0075Z" fill="white"/>
</svg>
