<svg width="16" height="16" viewBox="0 0 16 16" fill="none" xmlns="http://www.w3.org/2000/svg">
<path d="M13.1933 9.95338C11.8199 11.32 9.85327 11.74 8.1266 11.2L4.9866 14.3334C4.75993 14.5667 4.31327 14.7067 3.99327 14.66L2.53993 14.46C2.05993 14.3934 1.61327 13.94 1.53993 13.46L1.33993 12.0067C1.29327 11.6867 1.4466 11.24 1.6666 11.0134L4.79993 7.88005C4.2666 6.14671 4.67993 4.18005 6.05327 2.81338C8.01994 0.846712 11.2133 0.846712 13.1866 2.81338C15.1599 4.78005 15.1599 7.98671 13.1933 9.95338Z" fill="white"/>
<path d="M4.59326 11.6599L6.1266 13.1932" stroke="#7065F0" stroke-width="2" stroke-miterlimit="10" stroke-linecap="round" stroke-linejoin="round"/>
<path d="M9.66675 7.33325C10.219 7.33325 10.6667 6.88554 10.6667 6.33325C10.6667 5.78097 10.219 5.33325 9.66675 5.33325C9.11446 5.33325 8.66675 5.78097 8.66675 6.33325C8.66675 6.88554 9.11446 7.33325 9.66675 7.33325Z" fill="#7065F0" stroke="#7065F0" stroke-width="2" stroke-linecap="round" stroke-linejoin="round"/>
</svg>
