<svg width="28" height="28" viewBox="0 0 28 28" fill="none" xmlns="http://www.w3.org/2000/svg">
<path d="M13.9999 24.5L25.6666 16.3333H21.0116L20.9999 3.5H6.99992V16.3333H2.33325L13.9999 24.5Z" fill="white" stroke="white" stroke-width="2" stroke-linecap="round" stroke-linejoin="round"/>
<g filter="url(#filter0_d_601_2908)">
<path d="M10.5 16.3333L17.5 9.33325" stroke="#7065F0" stroke-width="2" stroke-linecap="round" stroke-linejoin="round"/>
</g>
<g filter="url(#filter1_d_601_2908)">
<path d="M11.0833 10.4999C11.4055 10.4999 11.6667 10.2388 11.6667 9.91659C11.6667 9.59442 11.4055 9.33325 11.0833 9.33325C10.7612 9.33325 10.5 9.59442 10.5 9.91659C10.5 10.2388 10.7612 10.4999 11.0833 10.4999Z" fill="#7065F0"/>
<path d="M11.0833 10.4999C11.4055 10.4999 11.6667 10.2388 11.6667 9.91659C11.6667 9.59442 11.4055 9.33325 11.0833 9.33325C10.7612 9.33325 10.5 9.59442 10.5 9.91659C10.5 10.2388 10.7612 10.4999 11.0833 10.4999Z" stroke="#7065F0" stroke-width="2" stroke-linecap="round" stroke-linejoin="round"/>
</g>
<path d="M16.9166 16.3334C17.2388 16.3334 17.4999 16.0722 17.4999 15.7501C17.4999 15.4279 17.2388 15.1667 16.9166 15.1667C16.5944 15.1667 16.3333 15.4279 16.3333 15.7501C16.3333 16.0722 16.5944 16.3334 16.9166 16.3334Z" fill="#7065F0" stroke="#7065F0" stroke-width="2" stroke-linecap="round" stroke-linejoin="round"/>
<defs>
<filter id="filter0_d_601_2908" x="7.5" y="6.33325" width="17" height="17" filterUnits="userSpaceOnUse" color-interpolation-filters="sRGB">
<feFlood flood-opacity="0" result="BackgroundImageFix"/>
<feColorMatrix in="SourceAlpha" type="matrix" values="0 0 0 0 0 0 0 0 0 0 0 0 0 0 0 0 0 0 127 0" result="hardAlpha"/>
<feOffset dx="2" dy="2"/>
<feGaussianBlur stdDeviation="2"/>
<feComposite in2="hardAlpha" operator="out"/>
<feColorMatrix type="matrix" values="0 0 0 0 0.439216 0 0 0 0 0.396078 0 0 0 0 0.941176 0 0 0 0.1 0"/>
<feBlend mode="normal" in2="BackgroundImageFix" result="effect1_dropShadow_601_2908"/>
<feBlend mode="normal" in="SourceGraphic" in2="effect1_dropShadow_601_2908" result="shape"/>
</filter>
<filter id="filter1_d_601_2908" x="7.5" y="6.33325" width="11.1667" height="11.1667" filterUnits="userSpaceOnUse" color-interpolation-filters="sRGB">
<feFlood flood-opacity="0" result="BackgroundImageFix"/>
<feColorMatrix in="SourceAlpha" type="matrix" values="0 0 0 0 0 0 0 0 0 0 0 0 0 0 0 0 0 0 127 0" result="hardAlpha"/>
<feOffset dx="2" dy="2"/>
<feGaussianBlur stdDeviation="2"/>
<feComposite in2="hardAlpha" operator="out"/>
<feColorMatrix type="matrix" values="0 0 0 0 0.439216 0 0 0 0 0.396078 0 0 0 0 0.941176 0 0 0 0.1 0"/>
<feBlend mode="normal" in2="BackgroundImageFix" result="effect1_dropShadow_601_2908"/>
<feBlend mode="normal" in="SourceGraphic" in2="effect1_dropShadow_601_2908" result="shape"/>
</filter>
</defs>
</svg>
