<svg width="32" height="32" viewBox="0 0 32 32" fill="none" xmlns="http://www.w3.org/2000/svg">
<path d="M23.3734 10.3601C23.2801 10.3467 23.1867 10.3467 23.0934 10.3601C21.0267 10.2934 19.3867 8.60008 19.3867 6.52008C19.3867 4.40008 21.1067 2.66675 23.2401 2.66675C25.3601 2.66675 27.0934 4.38675 27.0934 6.52008C27.0801 8.60008 25.4401 10.2934 23.3734 10.3601Z" fill="white"/>
<path d="M27.72 19.6C26.2266 20.6 24.1333 20.9734 22.2 20.72C22.7066 19.6267 22.9733 18.4134 22.9866 17.1334C22.9866 15.8001 22.6933 14.5334 22.1333 13.4267C24.1066 13.16 26.2 13.5334 27.7066 14.5334C29.8133 15.92 29.8133 18.2 27.72 19.6Z" fill="white"/>
<path d="M8.58655 10.3601C8.67988 10.3467 8.77322 10.3467 8.86655 10.3601C10.9332 10.2934 12.5732 8.60008 12.5732 6.52008C12.5732 4.38675 10.8532 2.66675 8.71988 2.66675C6.59988 2.66675 4.87988 4.38675 4.87988 6.52008C4.87988 8.60008 6.51988 10.2934 8.58655 10.3601Z" fill="white"/>
<path d="M8.73325 17.1334C8.73325 18.4267 9.01325 19.6534 9.51991 20.7601C7.63991 20.9601 5.67991 20.5601 4.23991 19.6134C2.13325 18.2134 2.13325 15.9334 4.23991 14.5334C5.66658 13.5734 7.67991 13.1867 9.57325 13.4001C9.02658 14.5201 8.73325 15.7867 8.73325 17.1334Z" fill="white"/>
<path d="M16.1599 21.16C16.0532 21.1467 15.9332 21.1467 15.8132 21.16C13.3599 21.08 11.3999 19.0667 11.3999 16.5867C11.4132 14.0533 13.4532 12 15.9999 12C18.5332 12 20.5866 14.0533 20.5866 16.5867C20.5732 19.0667 18.6266 21.08 16.1599 21.16Z" fill="white"/>
<path d="M11.8267 23.92C9.81332 25.2667 9.81332 27.48 11.8267 28.8134C14.12 30.3467 17.88 30.3467 20.1733 28.8134C22.1867 27.4667 22.1867 25.2534 20.1733 23.92C17.8933 22.3867 14.1333 22.3867 11.8267 23.92Z" fill="white"/>
</svg>
