<svg width="21" height="21" viewBox="0 0 21 21" fill="none" xmlns="http://www.w3.org/2000/svg">
<rect width="21" height="21" rx="10.5" fill="#7065F0"/>
<path d="M10.0626 8.21338V9.88171L9.47345 9.67755C9.17595 9.57255 8.99512 9.47338 8.99512 8.96588C8.99512 8.55171 9.30428 8.21338 9.68345 8.21338H10.0626Z" fill="white"/>
<path d="M12.005 12.0342C12.005 12.4484 11.6958 12.7867 11.3167 12.7867H10.9375V11.1184L11.5267 11.3226C11.8242 11.4276 12.005 11.5267 12.005 12.0342Z" fill="white"/>
<path d="M12.9442 4.66675H8.05591C5.93258 4.66675 4.66675 5.93258 4.66675 8.05591V12.9442C4.66675 15.0676 5.93258 16.3334 8.05591 16.3334H12.9442C15.0676 16.3334 16.3334 15.0676 16.3334 12.9442V8.05591C16.3334 5.93258 15.0676 4.66675 12.9442 4.66675ZM11.8184 10.5001C12.2734 10.6576 12.8801 10.9901 12.8801 12.0342C12.8801 12.9326 12.1801 13.6617 11.3167 13.6617H10.9376V14.0001C10.9376 14.2392 10.7392 14.4376 10.5001 14.4376C10.2609 14.4376 10.0626 14.2392 10.0626 14.0001V13.6617H9.85258C8.89591 13.6617 8.12008 12.8509 8.12008 11.8592C8.12008 11.6201 8.31258 11.4217 8.55758 11.4217C8.79675 11.4217 8.99508 11.6201 8.99508 11.8592C8.99508 12.3726 9.38008 12.7867 9.85258 12.7867H10.0626V10.8092L9.18175 10.5001C8.72675 10.3426 8.12008 10.0101 8.12008 8.96591C8.12008 8.06758 8.82008 7.33841 9.68341 7.33841H10.0626V7.00008C10.0626 6.76091 10.2609 6.56258 10.5001 6.56258C10.7392 6.56258 10.9376 6.76091 10.9376 7.00008V7.33841H11.1476C12.1042 7.33841 12.8801 8.14925 12.8801 9.14091C12.8801 9.38008 12.6876 9.57841 12.4426 9.57841C12.2034 9.57841 12.0051 9.38008 12.0051 9.14091C12.0051 8.62758 11.6201 8.21341 11.1476 8.21341H10.9376V10.1909L11.8184 10.5001Z" fill="white"/>
</svg>
