<svg width="28" height="28" viewBox="0 0 28 28" fill="none" xmlns="http://www.w3.org/2000/svg">
<g clip-path="url(#clip0_601_2879)">
<path fill-rule="evenodd" clip-rule="evenodd" d="M2.33325 13.9999H4.92578V23.074C4.92578 23.7616 5.19893 24.421 5.68513 24.9072C6.17134 25.3934 6.83078 25.6666 7.51837 25.6666H20.4813C21.1689 25.6666 21.8284 25.3934 22.3146 24.9072C22.8008 24.421 23.0739 23.7616 23.0739 23.074V13.9999H23.074H25.6666L13.9999 2.33325L2.33325 13.9999Z" fill="white"/>
<path d="M4.92578 13.9999H5.92578C5.92578 13.4476 5.47807 12.9999 4.92578 12.9999V13.9999ZM2.33325 13.9999L1.62615 13.2928C1.34015 13.5788 1.25459 14.0089 1.40937 14.3826C1.56415 14.7563 1.92879 14.9999 2.33325 14.9999V13.9999ZM5.68513 24.9072L6.39224 24.2001L6.39224 24.2001L5.68513 24.9072ZM23.0739 13.9999V12.9999C22.5216 12.9999 22.0739 13.4476 22.0739 13.9999H23.0739ZM25.6666 13.9999V14.9999C26.071 14.9999 26.4357 14.7563 26.5905 14.3826C26.7452 14.0089 26.6597 13.5788 26.3737 13.2928L25.6666 13.9999ZM13.9999 2.33325L14.707 1.62615C14.5195 1.43861 14.2651 1.33325 13.9999 1.33325C13.7347 1.33325 13.4803 1.43861 13.2928 1.62615L13.9999 2.33325ZM4.92578 12.9999H2.33325V14.9999H4.92578V12.9999ZM3.92578 13.9999V23.074H5.92578V13.9999H3.92578ZM3.92578 23.074C3.92578 24.0268 4.30429 24.9406 4.97803 25.6143L6.39224 24.2001C6.09357 23.9015 5.92578 23.4964 5.92578 23.074H3.92578ZM4.97803 25.6143C5.65177 26.2881 6.56556 26.6666 7.51837 26.6666V24.6666C7.09599 24.6666 6.69091 24.4988 6.39224 24.2001L4.97803 25.6143ZM7.51837 26.6666H20.4813V24.6666H7.51837V26.6666ZM20.4813 26.6666C21.4342 26.6666 22.3479 26.2881 23.0217 25.6143L21.6075 24.2001C21.3088 24.4988 20.9037 24.6666 20.4813 24.6666V26.6666ZM23.0217 25.6143C23.6954 24.9406 24.0739 24.0268 24.0739 23.074H22.0739C22.0739 23.4964 21.9061 23.9015 21.6075 24.2001L23.0217 25.6143ZM24.0739 23.074V13.9999H22.0739V23.074H24.0739ZM23.074 12.9999H23.0739V14.9999H23.074V12.9999ZM25.6666 12.9999H23.074V14.9999H25.6666V12.9999ZM13.2928 3.04036L24.9595 14.707L26.3737 13.2928L14.707 1.62615L13.2928 3.04036ZM3.04036 14.707L14.707 3.04036L13.2928 1.62615L1.62615 13.2928L3.04036 14.707Z" fill="white"/>
<path d="M10.5 15.7501L12.8333 18.0834L17.5 13.4167" stroke="#7065F0" stroke-width="2" stroke-linecap="round" stroke-linejoin="round"/>
</g>
<defs>
<clipPath id="clip0_601_2879">
<rect width="28" height="28" fill="white"/>
</clipPath>
</defs>
</svg>
