<svg width="28" height="28" viewBox="0 0 28 28" fill="none" xmlns="http://www.w3.org/2000/svg">
<g clip-path="url(#clip0_601_2897)">
<g filter="url(#filter0_d_601_2897)">
<path d="M5.83325 24.5V5.83333C5.83325 5.21449 6.07908 4.621 6.51667 4.18342C6.95425 3.74583 7.54775 3.5 8.16659 3.5H19.8333C20.4521 3.5 21.0456 3.74583 21.4832 4.18342C21.9208 4.621 22.1666 5.21449 22.1666 5.83333V24.5L18.6666 22.1667L16.3333 24.5L13.9999 22.1667L11.6666 24.5L9.33325 22.1667L5.83325 24.5Z" fill="white"/>
<path d="M5.83325 24.5V5.83333C5.83325 5.21449 6.07908 4.621 6.51667 4.18342C6.95425 3.74583 7.54775 3.5 8.16659 3.5H19.8333C20.4521 3.5 21.0456 3.74583 21.4832 4.18342C21.9208 4.621 22.1666 5.21449 22.1666 5.83333V24.5L18.6666 22.1667L16.3333 24.5L13.9999 22.1667L11.6666 24.5L9.33325 22.1667L5.83325 24.5Z" stroke="white" stroke-width="2" stroke-linecap="round" stroke-linejoin="round"/>
</g>
<g filter="url(#filter1_d_601_2897)">
<path d="M16.3334 9.33325H13.4167C12.9526 9.33325 12.5075 9.51763 12.1793 9.84581C11.8511 10.174 11.6667 10.6191 11.6667 11.0833C11.6667 11.5474 11.8511 11.9925 12.1793 12.3207C12.5075 12.6489 12.9526 12.8333 13.4167 12.8333H14.5834C15.0475 12.8333 15.4927 13.0176 15.8209 13.3458C16.149 13.674 16.3334 14.1191 16.3334 14.5833C16.3334 15.0474 16.149 15.4925 15.8209 15.8207C15.4927 16.1489 15.0475 16.3332 14.5834 16.3332H11.6667M14.0001 16.3332V18.0832M14.0001 7.58325V9.33325" stroke="#7065F0" stroke-width="2" stroke-linecap="round" stroke-linejoin="round" shape-rendering="crispEdges"/>
</g>
</g>
<defs>
<filter id="filter0_d_601_2897" x="2.83325" y="0.5" width="26.3333" height="31" filterUnits="userSpaceOnUse" color-interpolation-filters="sRGB">
<feFlood flood-opacity="0" result="BackgroundImageFix"/>
<feColorMatrix in="SourceAlpha" type="matrix" values="0 0 0 0 0 0 0 0 0 0 0 0 0 0 0 0 0 0 127 0" result="hardAlpha"/>
<feOffset dx="2" dy="2"/>
<feGaussianBlur stdDeviation="2"/>
<feComposite in2="hardAlpha" operator="out"/>
<feColorMatrix type="matrix" values="0 0 0 0 0.439216 0 0 0 0 0.396078 0 0 0 0 0.941176 0 0 0 0.1 0"/>
<feBlend mode="normal" in2="BackgroundImageFix" result="effect1_dropShadow_601_2897"/>
<feBlend mode="normal" in="SourceGraphic" in2="effect1_dropShadow_601_2897" result="shape"/>
</filter>
<filter id="filter1_d_601_2897" x="8.66675" y="4.58325" width="14.6667" height="20.5" filterUnits="userSpaceOnUse" color-interpolation-filters="sRGB">
<feFlood flood-opacity="0" result="BackgroundImageFix"/>
<feColorMatrix in="SourceAlpha" type="matrix" values="0 0 0 0 0 0 0 0 0 0 0 0 0 0 0 0 0 0 127 0" result="hardAlpha"/>
<feOffset dx="2" dy="2"/>
<feGaussianBlur stdDeviation="2"/>
<feComposite in2="hardAlpha" operator="out"/>
<feColorMatrix type="matrix" values="0 0 0 0 0.439216 0 0 0 0 0.396078 0 0 0 0 0.941176 0 0 0 0.1 0"/>
<feBlend mode="normal" in2="BackgroundImageFix" result="effect1_dropShadow_601_2897"/>
<feBlend mode="normal" in="SourceGraphic" in2="effect1_dropShadow_601_2897" result="shape"/>
</filter>
<clipPath id="clip0_601_2897">
<rect width="28" height="28" fill="white"/>
</clipPath>
</defs>
</svg>
